PathFileType	4	(X/Y/Z)	C:/Users/opensim2020/Desktop/walking_exp_matlab/subject06_walking13_straight_04.trc																																																																																																																																																				
DataRate	CameraRate	NumFrames	NumMarkers	Units	OrigDataRate	OrigDataStartFrame	OrigNumFrames																																																																																																																																																
100	100	7	50	mm	100	3013	204																																																																																																																																																
Frame#	Time	LFHD			RFHD			LBHD			RBHD			C7			T10			CLAV			STRN			RBAK			LSHO			LUPA			LELB			LFRM			LWRA			LWRB			LFIN			RSHO			RUPA			RELB			RFRM			RWRA			RWRB			RFIN			LASI			RASI			LPSI			RPSI			LTHI			LKNE			LTIB			LANK			LHEE			LTOE			RTHI			RKNE			RTIB			RANK			RHEE			RTOE			*39			*40			*41			*42			*43			*44			*45			*46			*47			*48			*49		
		X1	Y1	Z1	X2	Y2	Z2	X3	Y3	Z3	X4	Y4	Z4	X5	Y5	Z5	X6	Y6	Z6	X7	Y7	Z7	X8	Y8	Z8	X9	Y9	Z9	X10	Y10	Z10	X11	Y11	Z11	X12	Y12	Z12	X13	Y13	Z13	X14	Y14	Z14	X15	Y15	Z15	X16	Y16	Z16	X17	Y17	Z17	X18	Y18	Z18	X19	Y19	Z19	X20	Y20	Z20	X21	Y21	Z21	X22	Y22	Z22	X23	Y23	Z23	X24	Y24	Z24	X25	Y25	Z25	X26	Y26	Z26	X27	Y27	Z27	X28	Y28	Z28	X29	Y29	Z29	X30	Y30	Z30	X31	Y31	Z31	X32	Y32	Z32	X33	Y33	Z33	X34	Y34	Z34	X35	Y35	Z35	X36	Y36	Z36	X37	Y37	Z37	X38	Y38	Z38	X39	Y39	Z39	X40	Y40	Z40	X41	Y41	Z41	X42	Y42	Z42	X43	Y43	Z43	X44	Y44	Z44	X45	Y45	Z45	X46	Y46	Z46	X47	Y47	Z47	X48	Y48	Z48	X49	Y49	Z49	X50	Y50	Z50
																																																																																																																																																							
154	1.53	313.39172	1678.00842	-1493.4823	302.82474	1660.33081	-1362.56177	182.03168	1619.4751	-1507.67065	172.7025	1607.89331	-1379.18628	180.9485	1456.87427	-1451.98547	163.73679	1126.99255	-1442.53503	295.62726	1385.77625	-1449.23865	344.71542	1212.52869	-1456.84265	119.17641	1283.72461	-1371.35132	240.04601	1414.06689	-1612.12439	255.11363	1210.33997	-1678.61279	261.33466	1097.23474	-1686.43213	321.35425	958.33606	-1704.43811	416.40042	871.7796	-1663.27539	357.38992	844.10388	-1692.44678	423.5379	783.59198	-1696.91248	250.30667	1414.26611	-1288.54309	226.78253	1211.75293	-1203.07605	242.49379	1090.60461	-1193.67517	264.28839	972.01276	-1177.68555	332.09253	836.35309	-1210.72266	278.44858	835.12347	-1169.14441	318.33646	760.46912	-1168.84375	345.46255	970.76428	-1551.4696	351.82526	984.50659	-1331.16089	187.03534	990.61493	-1519.10657	199.66449	1002.06085	-1351.12903	336.81955	653.04565	-1602.66687	383.92136	497.7991	-1584.38098	205.72093	336.49933	-1582.22144	74.59378	224.07317	-1549.51941	35.75751	244.87067	-1505.43152	139.74663	93.87647	-1537.79785	322.65067	646.5	-1278.74585	333.20264	522.1532	-1307.19055	288.53226	257.88824	-1314.42493	272.26346	73.43483	-1361.49377	231.2522	48.01254	-1405.11255	422.79404	43.17068	-1368.18481	207.20032	1710.37659	-1440.94543	NaN	NaN	NaN	NaN	NaN	NaN	NaN	NaN	NaN	NaN	NaN	NaN	NaN	NaN	NaN	NaN	NaN	NaN	NaN	NaN	NaN	NaN	NaN	NaN	NaN	NaN	NaN	NaN	NaN	NaN
155	1.54	323.81421	1678.67761	-1494.44983	313.26089	1661.38611	-1363.35388	192.13239	1620.17957	-1508.0531	183.09039	1608.96814	-1379.55579	191.0482	1457.66772	-1452.16296	173.58971	1127.84534	-1442.26147	305.62308	1386.53882	-1449.31946	354.73505	1213.31909	-1456.51294	129.41756	1284.72705	-1370.94617	249.82957	1414.76135	-1612.32678	263.02515	1210.65942	-1678.48376	267.75726	1097.4967	-1685.78394	323.23666	956.69873	-1703.9342	415.27728	866.45825	-1663.40051	355.21793	841.27637	-1691.98621	418.82864	778.20178	-1697.40137	260.51596	1415.47485	-1288.8208	239.74368	1213.10388	-1202.66321	257.53061	1092.10339	-1193.11731	282.31326	974.1731	-1177.27759	352.7037	840.2774	-1211.50061	300.26724	837.72034	-1169.24402	342.4202	764.36334	-1169.05347	355.57736	971.85492	-1550.65173	360.81351	984.61713	-1330.4082	196.9572	991.74152	-1518.99988	208.90074	1002.70148	-1350.8999	350.99902	655.55432	-1602.93799	401.3508	501.32858	-1583.88489	226.95329	335.61728	-1582.22632	99.04939	219.36203	-1549.95593	59.49798	238.60168	-1505.90283	168.70857	91.72966	-1539.39514	327.83813	646.45679	-1278.60559	336.58121	521.82043	-1306.49866	289.73947	257.98218	-1314.30249	272.18582	73.53083	-1361.58301	231.08746	47.97146	-1405.35242	422.58997	43.37891	-1368.25134	217.52664	1711.2821	-1441.68994	NaN	NaN	NaN	NaN	NaN	NaN	NaN	NaN	NaN	NaN	NaN	NaN	NaN	NaN	NaN	NaN	NaN	NaN	NaN	NaN	NaN	NaN	NaN	NaN	NaN	NaN	NaN	NaN	NaN	NaN
156	1.55	333.85272	1679.17212	-1495.27808	323.67368	1662.26233	-1364.16895	202.19139	1620.77185	-1508.52856	193.43158	1609.96582	-1379.95532	201.1713	1458.43762	-1452.28442	183.55411	1128.54004	-1441.85413	315.66449	1387.24158	-1449.4281	364.71799	1213.92798	-1456.12988	139.5639	1285.53662	-1370.64966	259.69977	1415.20398	-1612.45654	270.81461	1210.82312	-1678.3457	274.05621	1097.67761	-1685.3772	325.18298	955.15192	-1703.68665	413.99045	861.38934	-1663.45984	352.87421	838.64392	-1692.29688	413.91083	773.11389	-1697.75574	270.62686	1416.56982	-1289.12964	252.4523	1214.2915	-1202.19446	272.38394	1093.61804	-1192.48083	300.48947	976.33075	-1177.04419	374.37619	844.75336	-1211.99707	322.12158	840.45868	-1169.54248	366.52127	768.68256	-1169.44995	365.78406	972.91174	-1549.84778	369.82962	984.66418	-1329.64966	206.89291	992.75488	-1518.90356	218.13559	1003.23517	-1350.83899	365.44449	658.17224	-1602.90588	418.11127	504.8027	-1583.60132	248.364	334.1044	-1582.32166	124.16611	213.66953	-1550.32813	83.93565	231.29376	-1506.1626	198.86421	88.96848	-1540.77527	333.3382	646.30414	-1278.4812	340.6217	521.52887	-1306.06543	291.49127	258.03488	-1314.22729	272.18024	73.59231	-1361.62231	230.3727	48.5139	-1404.61584	422.40988	43.54051	-1368.30212	227.83304	1712.06641	-1442.45386	NaN	NaN	NaN	NaN	NaN	NaN	NaN	NaN	NaN	NaN	NaN	NaN	NaN	NaN	NaN	NaN	NaN	NaN	NaN	NaN	NaN	NaN	NaN	NaN	NaN	NaN	NaN	NaN	NaN	NaN
157	1.56	344.11755	1679.61401	-1496.21826	334.17542	1663.09753	-1365.06506	212.27289	1621.25	-1509.05981	203.75743	1610.80078	-1380.34753	211.31802	1459.0271	-1452.44775	193.44862	1129.12585	-1441.3988	325.67816	1387.77026	-1449.6051	374.74866	1214.44751	-1455.76294	149.77278	1286.20935	-1370.35315	269.64801	1415.38477	-1612.52173	278.6019	1210.90759	-1678.34717	280.35767	1097.79529	-1685.13013	327.13016	953.93127	-1703.77783	412.55621	856.61377	-1663.61182	350.59366	836.41388	-1692.54468	408.93738	768.39301	-1698.06592	280.64246	1417.55579	-1289.36206	264.79269	1215.4613	-1201.79858	287.12454	1095.0376	-1191.81885	318.42319	978.60071	-1176.84119	395.49811	849.23767	-1212.86218	343.98267	843.47186	-1169.89648	390.60019	773.20917	-1170.00488	375.9704	973.71936	-1549	378.83929	984.54413	-1328.94324	216.94472	993.62262	-1519.02576	227.30577	1003.70782	-1350.8822	379.16812	660.68658	-1603.25659	434.60626	508.25067	-1583.15662	269.72269	331.99939	-1582.33264	149.87259	207.15376	-1550.65723	109.0191	222.98439	-1506.26135	229.66985	85.80025	-1542.07983	339.03177	646.03131	-1278.49658	344.91147	521.04523	-1305.75671	293.58356	258.00101	-1314.28516	272.15579	73.65868	-1361.64929	230.26033	48.53397	-1404.66882	422.18814	43.83392	-1368.2876	238.1454	1712.71545	-1443.22778	NaN	NaN	NaN	NaN	NaN	NaN	NaN	NaN	NaN	NaN	NaN	NaN	NaN	NaN	NaN	NaN	NaN	NaN	NaN	NaN	NaN	NaN	NaN	NaN	NaN	NaN	NaN	NaN	NaN	NaN
158	1.57	354.07382	1679.91125	-1497.11096	344.50327	1663.73621	-1365.89087	222.35883	1621.6073	-1509.46362	214.15872	1611.48572	-1380.83752	221.48114	1459.45874	-1452.54102	203.39827	1129.55737	-1441.00427	335.76199	1388.2124	-1449.776	384.86914	1214.83984	-1455.46118	160.01653	1286.66333	-1369.95996	279.46667	1415.59155	-1612.67957	286.32962	1210.92639	-1678.39441	286.42972	1097.8252	-1684.94739	329.01733	952.73145	-1703.85706	410.99847	852.23004	-1663.76074	348.31958	834.51825	-1693.01526	403.94269	764.06458	-1698.31311	290.69992	1418.39343	-1289.6333	277.09436	1216.57776	-1201.31421	301.61102	1096.51917	-1191.06921	336.18365	981.00586	-1176.35071	416.78827	854.18329	-1213.63586	365.73434	846.63019	-1170.35779	414.51785	778.09064	-1170.79016	386.21851	974.36481	-1548.09827	387.76505	984.31097	-1328.25867	226.91974	994.36377	-1519.15381	236.47693	1004.07196	-1350.85217	392.72253	663.14581	-1603.58752	450.49863	511.54752	-1582.90979	291.10831	329.44327	-1582.39624	176.04732	199.95456	-1550.97742	134.67821	213.57272	-1506.32373	261.35486	82.39385	-1543.37451	344.69751	645.67792	-1278.38171	349.51407	520.52783	-1305.53931	295.68121	257.91992	-1314.38098	272.14401	73.75253	-1361.73413	230.14058	48.59335	-1404.73022	421.90555	44.04279	-1368.26965	248.40967	1713.19971	-1443.99475	NaN	NaN	NaN	NaN	NaN	NaN	NaN	NaN	NaN	NaN	NaN	NaN	NaN	NaN	NaN	NaN	NaN	NaN	NaN	NaN	NaN	NaN	NaN	NaN	NaN	NaN	NaN	NaN	NaN	NaN
159	1.58	364.22815	1680.06348	-1498.1283	354.82141	1664.21729	-1366.79358	232.39487	1621.78723	-1509.875	224.5425	1611.93884	-1381.28821	231.67355	1459.83179	-1452.70728	213.2762	1129.90784	-1440.62061	345.84195	1388.46265	-1449.98401	394.87811	1215.0354	-1455.16809	170.24223	1286.98071	-1369.59766	289.23331	1415.6543	-1612.91907	294.00446	1210.80322	-1678.48401	292.45374	1097.78198	-1684.89734	330.8996	951.48517	-1703.81445	409.22415	848.16144	-1663.90723	346.26865	832.8374	-1693.646	399.05203	760.07483	-1698.50659	300.80075	1419.10144	-1289.93652	289.11127	1217.52417	-1200.90295	315.89557	1097.84619	-1190.33667	353.99991	983.41992	-1176.24585	437.62698	859.26434	-1214.64185	387.3392	849.98065	-1170.82788	438.39035	783.23737	-1171.75891	396.61588	974.99072	-1547.27319	396.76071	983.9657	-1327.57788	236.99667	994.94757	-1519.3833	245.70966	1004.30487	-1350.93982	406.44418	666.11969	-1603.50903	465.79645	514.56854	-1582.74463	312.38089	326.45868	-1582.39392	202.9184	191.94467	-1551.11389	161.05266	203.39148	-1506.13232	293.91745	78.9473	-1544.73071	350.73218	645.14667	-1278.47961	354.2041	519.92975	-1305.40796	297.62027	257.92358	-1314.58789	272.04556	73.90221	-1361.91675	229.9796	48.67799	-1404.98047	421.55939	44.19799	-1368.23547	258.62256	1713.53198	-1444.77222	NaN	NaN	NaN	NaN	NaN	NaN	NaN	NaN	NaN	NaN	NaN	NaN	NaN	NaN	NaN	NaN	NaN	NaN	NaN	NaN	NaN	NaN	NaN	NaN	NaN	NaN	NaN	NaN	NaN	NaN
160	1.59	374.32761	1680.09351	-1499.09607	365.3064	1664.56409	-1367.71655	242.5085	1621.78027	-1510.45093	234.91269	1612.27026	-1381.74219	241.92834	1459.94238	-1452.90527	223.20078	1130.04102	-1440.08606	355.96933	1388.61511	-1450.1488	404.98688	1215.13098	-1454.88647	180.41298	1287.22937	-1369.36951	299.17432	1415.50806	-1613.11731	301.61121	1210.58838	-1678.57202	298.44327	1097.72229	-1684.88953	332.841	950.56348	-1704.10364	408.02509	844.52527	-1664.17566	344.31058	831.44946	-1694.52673	394.38263	756.50354	-1698.63171	311.01163	1419.5863	-1290.1908	301.13541	1218.422	-1200.45874	329.84531	1099.09766	-1189.52466	371.38702	985.87445	-1176.16907	458.08875	864.48395	-1215.68396	408.94855	853.55981	-1171.32568	462.04269	788.61877	-1172.823	406.91077	975.37964	-1546.37756	405.85797	983.51086	-1326.92859	247.07001	995.43317	-1519.46948	255.02399	1004.29169	-1351.08618	419.07291	667.71252	-1604.41992	480.70657	517.39667	-1582.69043	333.65768	323.11356	-1582.37415	230.41559	183.42046	-1551.1366	188.20477	192.41835	-1505.74915	327.15982	75.57594	-1546.20984	356.96997	644.60504	-1278.79651	359.32373	519.24963	-1305.57825	299.52289	257.82922	-1314.91125	272.11343	74.0517	-1362.18433	229.65114	48.88213	-1405.16064	421.23227	44.40774	-1367.96277	268.91873	1713.65186	-1445.63867	NaN	NaN	NaN	NaN	NaN	NaN	NaN	NaN	NaN	NaN	NaN	NaN	NaN	NaN	NaN	NaN	NaN	NaN	NaN	NaN	NaN	NaN	NaN	NaN	NaN	NaN	NaN	NaN	NaN	NaN
